# xmcd
#
# Track frame offsets:
#	150
#	17664
#	37867
#	53732
#	71970
#	94192
#	113084
#	131068
#	147240
#	161577
#	170727
#	186245
#	204578
#	229509
#	247570
#	257350
#	269695
#	285630
#	301715
#
# Disc length: 4265 seconds
#
# Revision: 0
# Processed by: cddbd v1.5.2PL0 Copyright (c) Steve Scherf et al.
# Submitted via: EasyCDDAExtractor 10.0.1.1
#
DISCID=0610a713
DTITLE=Various Artist - Best Dalmatian Song 4
DYEAR=1900
DGENRE=Country
TTITLE0=Ðani Stipanicev - Budi nocas mirno kore
TTITLE1=Oliver - Pred tvojim vratima
TTITLE2=Dalmatino - Gospe od cukra
TTITLE3=Jasna Zlokic - A covik poludi
TTITLE4=Tedi Spalato i Meri Cetinic - Konoba
TTITLE5=Ansambl Slobodna Dalmacija - Da te mogu pismom zvati
TTITLE6=Sakramenti - Kuntenat
TTITLE7=Gego i Picigin Band - Jamajka
TTITLE8=Kvartet Gorgonzola feat. Severina - Jemala san dragoga
TTITLE9=Gustafi - Eat i Die
TTITLE10=al - Donne di Toscanna
TTITLE11=Giulianno - Passano i Giorni
TTITLE12=Ibrica Jusic - Kavana Mediteran
TTITLE13=Branko Galoic - Osujen san na te
TTITLE14=Dunja Knebl - Klakar
TTITLE15=Ðordi Peruzovic - Balada o tovaru
TTITLE16=Mario Prižmic - Nevolja
TTITLE17=Ribari - Cehinja
TTITLE18=Dino i Denis - Zvonu zvona
EXTD=
EXTT0=
EXTT1=
EXTT2=
EXTT3=
EXTT4=
EXTT5=
EXTT6=
EXTT7=
EXTT8=
EXTT9=
EXTT10=
EXTT11=
EXTT12=
EXTT13=
EXTT14=
EXTT15=
EXTT16=
EXTT17=
EXTT18=
PLAYORDER=
